####
#
# OBJ File Generated by Meshlab
#
####
# Object squareDown.obj
#
# Vertices: 4
# Faces: 2
#
####
mtllib ./squareDown.obj.mtl

vn -0.577350 -0.577350 -0.577350
v -0.500000 0.000000 -0.500000
vn 0.577350 -0.577350 -0.577350
v 0.500000 0.000000 -0.500000
vn -0.577350 -0.577350 0.577350
v -0.500000 -0.000000 0.500000
vn 0.577350 -0.577350 0.577350
v 0.500000 -0.000000 0.500000
# 4 vertices, 0 vertices normals


usemtl material_0
vt 0.000000 0.000000
vt 1.000000 0.000000
vt 0.000000 1.000000
f 1/1/1 2/2/2 3/3/3
vt 1.000000 1.000000
f 3/3/3 2/2/2 4/4/4
# 2 faces, 4 coords texture

# End of File
